<svg xmlns="http://www.w3.org/2000/svg" style="display:none">
<symbol id="add" viewBox="0 -960 960 960">
<path d="M450-450H220v-60h230v-230h60v230h230v60H510v230h-60v-230Z"/>
</symbol>
<symbol id="arrow_back" viewBox="0 -960 960 960">
<path d="m313-440 224 224-57 56-320-320 320-320 57 56-224 224h487v80H313Z"/>
</symbol>
<symbol id="arrow_down" viewBox="0 -960 960 960">
<path d="M480-357.85 253.85-584 296-626.15l184 184 184-184L706.15-584 480-357.85Z"/>
</symbol>
<symbol id="category" viewBox="0 -960 960 960">
<path d="M287.69-535.39 480-850.77l192.31 315.38H287.69ZM700-95.39q-68.85 0-116.73-47.88-47.88-47.88-47.88-116.73t47.88-116.73q47.88-47.88 116.73-47.88t116.73 47.88q47.88 47.88 47.88 116.73t-47.88 116.73Q768.85-95.39 700-95.39Zm-564.61-20v-289.22h289.22v289.22H135.39Zm564.6-39.99q43.93 0 74.28-30.34t30.35-74.27q0-43.93-30.34-74.28t-74.27-30.35q-43.93 0-74.28 30.34t-30.35 74.27q0 43.93 30.34 74.28t74.27 30.35Zm-504.61-20h169.24v-169.24H195.38v169.24Zm198.16-420h172.92L480-734.46l-86.46 139.08Zm86.46 0ZM364.62-344.62ZM700-260Z"/>
</symbol>
<symbol id="check" viewBox="0 -960 960 960">
<path d="M382-253.85 168.62-467.23 211.38-510 382-339.38 748.62-706l42.76 42.77L382-253.85Z"/>
</symbol>
<symbol id="close" viewBox="0 -960 960 960">
<path d="M256-213.85 213.85-256l224-224-224-224L256-746.15l224 224 224-224L746.15-704l-224 224 224 224L704-213.85l-224-224-224 224Z"/>
</symbol>
<symbol id="comment" viewBox="0 -960 960 960">
<path d="M250-410h460v-60H250v60Zm0-120h460v-60H250v60Zm0-120h460v-60H250v60Zm610 531.54L718.46-260H172.31Q142-260 121-281q-21-21-21-51.31v-455.38Q100-818 121-839q21-21 51.31-21h615.38Q818-860 839-839q21 21 21 51.31v669.23ZM172.31-320H744l56 55.39v-523.08q0-4.62-3.85-8.46-3.84-3.85-8.46-3.85H172.31q-4.62 0-8.46 3.85-3.85 3.84-3.85 8.46v455.38q0 4.62 3.85 8.46 3.84 3.85 8.46 3.85ZM160-320v-480 480Z"/>
</symbol>
<symbol id="delete" viewBox="0 -960 960 960">
<path d="M292.31-140q-29.92 0-51.12-21.19Q220-182.39 220-212.31V-720h-40v-60h180v-35.38h240V-780h180v60h-40v507.69Q740-182 719-161q-21 21-51.31 21H292.31ZM680-720H280v507.69q0 5.39 3.46 8.85t8.85 3.46h375.38q4.62 0 8.46-3.85 3.85-3.84 3.85-8.46V-720ZM376.16-280h59.99v-360h-59.99v360Zm147.69 0h59.99v-360h-59.99v360ZM280-720v520-520Z"/>
</symbol>
<symbol id="edit" viewBox="0 -960 960 960">
<path d="M200-200h50.46l409.46-409.46-50.46-50.46L200-250.46V-200Zm-60 60v-135.38l527.62-527.39q9.07-8.24 20.03-12.73 10.97-4.5 23-4.5t23.3 4.27q11.28 4.27 19.97 13.58l48.85 49.46q9.31 8.69 13.27 20 3.96 11.31 3.96 22.62 0 12.07-4.12 23.03-4.12 10.97-13.11 20.04L275.38-140H140Zm620.38-570.15-50.23-50.23 50.23 50.23Zm-126.13 75.9-24.79-25.67 50.46 50.46-25.67-24.79Z"/>
</symbol>
<symbol id="edit_square" viewBox="0 -960 960 960">
<path d="M212.31-140Q182-140 161-161q-21-21-21-51.31v-535.38Q140-778 161-799q21-21 51.31-21h346.23l-60 60H212.31q-4.62 0-8.46 3.85-3.85 3.84-3.85 8.46v535.38q0 4.62 3.85 8.46 3.84 3.85 8.46 3.85h535.38q4.62 0 8.46-3.85 3.85-3.84 3.85-8.46v-288.77l60-60v348.77Q820-182 799-161q-21 21-51.31 21H212.31ZM480-480ZM380-380v-137.31l362.39-362.38q9.3-9.31 20.46-13.58 11.15-4.27 22.69-4.27 11.77 0 22.61 4.27Q819-889 827.92-880.08L878.15-830q8.69 9.31 13.35 20.54 4.65 11.23 4.65 22.77t-3.96 22.38q-3.96 10.85-13.27 20.15L515.38-380H380Zm456.77-406.31-50.23-51.38 50.23 51.38ZM440-440h49.85l249.3-249.31-24.92-24.92-26.69-25.69L440-492.38V-440Zm274.23-274.23-26.69-25.69 26.69 25.69 24.92 24.92-24.92-24.92Z"/>
</symbol>
<symbol id="logout" viewBox="0 -960 960 960">
<path d="M212.31-140Q182-140 161-161q-21-21-21-51.31v-535.38Q140-778 161-799q21-21 51.31-21h268.07v60H212.31q-4.62 0-8.46 3.85-3.85 3.84-3.85 8.46v535.38q0 4.62 3.85 8.46 3.84 3.85 8.46 3.85h268.07v60H212.31Zm436.92-169.23-41.54-43.39L705.08-450H363.85v-60h341.23l-97.39-97.38 41.54-43.39L820-480 649.23-309.23Z"/>
</symbol>
<symbol id="profile" viewBox="0 -960 960 960">
<path d="M240.92-268.31q51-37.84 111.12-59.77Q412.15-350 480-350t127.96 21.92q60.12 21.93 111.12 59.77 37.3-41 59.11-94.92Q800-417.15 800-480q0-133-93.5-226.5T480-800q-133 0-226.5 93.5T160-480q0 62.85 21.81 116.77 21.81 53.92 59.11 94.92Zm146.7-219.31Q350-525.23 350-580q0-54.77 37.62-92.38Q425.23-710 480-710q54.77 0 92.38 37.62Q610-634.77 610-580q0 54.77-37.62 92.38Q534.77-450 480-450q-54.77 0-92.38-37.62ZM480-100q-79.15 0-148.5-29.77t-120.65-81.08q-51.31-51.3-81.08-120.65Q100-400.85 100-480t29.77-148.5q29.77-69.35 81.08-120.65 51.3-51.31 120.65-81.08Q400.85-860 480-860t148.5 29.77q69.35 29.77 120.65 81.08 51.31 51.3 81.08 120.65Q860-559.15 860-480t-29.77 148.5q-29.77 69.35-81.08 120.65-51.3 51.31-120.65 81.08Q559.15-100 480-100Zm104.42-77.42q50.27-17.43 89.27-48.73-39-30.16-88.11-47Q536.46-290 480-290t-105.77 16.65q-49.31 16.66-87.92 47.2 39 31.3 89.27 48.73Q425.85-160 480-160t104.42-17.42Zm-54.5-352.66Q550-550.15 550-580t-20.08-49.92Q509.85-650 480-650t-49.92 20.08Q410-609.85 410-580t20.08 49.92Q450.15-510 480-510t49.92-20.08ZM480-580Zm0 355Z"/>
</symbol>
<symbol id="reply1" viewBox="0 -960 960 960">
<path d="M760-200v-160q0-50-35-85t-85-35H273l144 144-57 56-240-240 240-240 57 56-144 144h367q83 0 141.5 58.5T840-360v160h-80Z"/>
</symbol>
<symbol id="reply2" viewBox="0 -960 960 960">
<path d="m560-120-57-57 144-143H200v-480h80v400h367L503-544l56-57 241 241-240 240Z"/>
</symbol>
<symbol id="search" viewBox="0 -960 960 960">
<path d="M781.69-136.92 530.46-388.16q-30 24.77-69 38.77-39 14-80.69 14-102.46 0-173.54-71.07-71.07-71.08-71.07-173.54t71.07-173.54q71.08-71.07 173.54-71.07t173.54 71.07q71.07 71.08 71.07 173.54 0 42.85-14.38 81.85-14.39 39-38.39 67.84l251.23 251.23-42.15 42.16ZM380.77-395.38q77.31 0 130.96-53.66 53.66-53.65 53.66-130.96t-53.66-130.96q-53.65-53.66-130.96-53.66t-130.96 53.66Q196.15-657.31 196.15-580t53.66 130.96q53.65 53.66 130.96 53.66Z"/>
</symbol>
<symbol id="thumb_down" viewBox="0 -960 960 960">
<path d="M250.77-803.84h420.77v479.99L406.15-60l-33.84-33.85q-6.23-6.23-10.35-16.5-4.11-10.27-4.11-19.34v-10.16l42.46-184h-268q-28.54 0-50.42-21.88Q60-367.62 60-396.15v-64.62q0-6.23 1.62-13.46 1.61-7.23 3.61-13.46l114.62-270.46q8.61-19.23 28.84-32.46t42.08-13.23Zm360.77 60H250.77q-4.23 0-8.65 2.3-4.43 2.31-6.74 7.7L120-463.84v67.69q0 5.38 3.46 8.84 3.46 3.47 8.85 3.47h343.84L426-164.61l185.54-184.77v-394.46Zm0 394.46v-394.46 394.46Zm60 25.53v-59.99H800v-360H671.54v-60H860v479.99H671.54Z"/>
</symbol>
<symbol id="thumb_down_filled" viewBox="0 -960 960 960">
<path d="M250.77-803.84h396.15v479.99L381.54-60 347.7-93.85q-6.24-6.23-10.35-16.5-4.12-10.27-4.12-19.34v-10.16l42.47-184H132.31q-28.54 0-50.42-21.88Q60-367.62 60-396.15v-64.62q0-6.23 1.31-13.46t3.92-13.46l114.62-270.46q8.61-19.23 28.84-32.46t42.08-13.23Zm456.15 479.99v-479.99H860v479.99H706.92Z"/>
</symbol>
<symbol id="thumb_up" viewBox="0 -960 960 960">
<path d="M709.23-140H288.46v-480l265.39-263.84L587.69-850q6.23 6.23 10.35 16.5 4.11 10.27 4.11 19.35V-804l-42.46 184h268q28.54 0 50.42 21.89Q900-576.23 900-547.69v64.61q0 6.23-1.62 13.46-1.61 7.23-3.61 13.47L780.15-185.69q-8.61 19.23-28.84 32.46T709.23-140Zm-360.77-60h360.77q4.23 0 8.65-2.31 4.43-2.31 6.74-7.69L840-480v-67.69q0-5.39-3.46-8.85t-8.85-3.46H483.85L534-779.23 348.46-594.46V-200Zm0-394.46V-200v-394.46Zm-60-25.54v60H160v360h128.46v60H100v-480h188.46Z"/>
</symbol>
<symbol id="thumb_up_filled" viewBox="0 -960 960 960">
<path d="M709.23-140H313.08v-480l265.38-263.84L612.3-850q6.24 6.23 10.35 16.5 4.12 10.27 4.12 19.35V-804L584.3-620h243.39q28.54 0 50.42 21.89Q900-576.23 900-547.69v64.61q0 6.23-1.31 13.46t-3.92 13.47L780.15-185.69q-8.61 19.23-28.84 32.46T709.23-140ZM253.08-620v480H100v-480h153.08Z"/>
</symbol>
</svg>